{
    "asset": {
        "version": "2.0"
    },
    "scene": 0,
    "scenes": [
        {
            "nodes": [
                0
            ]
        }
    ],
    "nodes": [
        {
            "mesh": 0
        }
    ],
    "meshes": [
        {
            "primitives": [
                {
                    "attributes": {
                        "POSITION": 1,
                        "NORMAL": 2,
                        "TEXCOORD_0": 3
                    },
                    "indices": 0,
                    "material": 0
                }
            ]
        }
    ],
    "materials": [
        {
            "name": "TintedRed",
            "pbrMetallicRoughness": {
                "baseColorFactor": [
                    1.0,
                    0.0,
                    0.0,
                    1.0
                ],
                "metallicFactor": 0.0,
                "roughnessFactor": 1.0
            },
            "doubleSided": true
        }
    ],
    "buffers": [
        {
            "byteLength": 104,
            "uri": "data:application/octet-stream;base64,"
        }
    ],
    "bufferViews": [
        {
            "buffer": 0,
            "byteOffset": 0,
            "byteLength": 6,
            "target": 34963
        },
        {
            "buffer": 0,
            "byteOffset": 8,
            "byteLength": 36,
            "target": 34962
        },
        {
            "buffer": 0,
            "byteOffset": 44,
            "byteLength": 36,
            "target": 34962
        },
        {
            "buffer": 0,
            "byteOffset": 80,
            "byteLength": 24,
            "target": 34962
        }
    ],
    "accessors": [
        {
            "bufferView": 0,
            "componentType": 5123,
            "count": 3,
            "type": "SCALAR",
            "max": [
                2
            ],
            "min": [
                0
            ]
        },
        {
            "bufferView": 1,
            "componentType": 5126,
            "count": 3,
            "type": "VEC3",
            "max": [
                0.5,
                0.5,
                0.0
            ],
            "min": [
                -0.5,
                -0.5,
                0.0
            ]
        },
        {
            "bufferView": 2,
            "componentType": 5126,
            "count": 3,
            "type": "VEC3"
        },
        {
            "bufferView": 3,
            "componentType": 5126,
            "count": 3,
            "type": "VEC2",
            "max": [
                1.0,
                1.0
            ],
            "min": [
                0.0,
                0.0
            ]
        }
    ]
}
